<svg width="33" height="33" viewBox="0 0 33 33" xmlns="http://www.w3.org/2000/svg" xmlns:xlink="http://www.w3.org/1999/xlink"><defs><path id="a" d="M0 33h33V0H0z"/></defs><g fill="none" fill-rule="evenodd"><g><mask id="b" fill="#fff"><use xlink:href="#a"/></mask><path d="M16.5 0C12 0 11.44.04 9.7.1 7.93.2 6.73.48 5.7.9c-1.1.42-2 .98-2.93 1.9C1.85 3.7 1.3 4.62.87 5.7c-.4 1.05-.7 2.25-.77 4-.08 1.76-.1 2.33-.1 6.8 0 4.48.02 5.05.1 6.8.08 1.76.36 2.96.77 4 .42 1.1.98 2 1.9 2.93.92.92 1.84 1.48 2.92 1.9 1.04.4 2.24.7 4 .77 1.75.08 2.32.1 6.8.1 4.47 0 5.04-.02 6.8-.1 1.75-.08 2.95-.36 4-.77 1.08-.42 2-.98 2.92-1.9.92-.92 1.48-1.84 1.9-2.92.4-1.04.7-2.24.77-4 .07-1.75.1-2.32.1-6.8 0-4.47-.03-5.04-.1-6.8-.1-1.75-.37-2.95-.78-4-.42-1.08-.98-2-1.9-2.92-.92-.92-1.84-1.48-2.92-1.9-1.05-.4-2.25-.7-4-.77-1.76-.07-2.33-.1-6.8-.1zm0 2.98c4.4 0 4.92.02 6.66.1 1.6.07 2.48.34 3.06.57.77.3 1.32.65 1.9 1.23.58.58.93 1.13 1.23 1.9.23.58.5 1.45.57 3.06.08 1.74.1 2.26.1 6.67 0 4.4-.02 4.93-.1 6.67-.07 1.6-.34 2.48-.57 3.06-.3.77-.65 1.32-1.23 1.9-.58.58-1.13.93-1.9 1.23-.58.23-1.45.5-3.06.57-1.74.08-2.26.1-6.67.1-4.4 0-4.93-.02-6.67-.1-1.6-.07-2.48-.34-3.06-.57-.77-.3-1.32-.65-1.9-1.23-.58-.58-.93-1.13-1.23-1.9-.23-.58-.5-1.45-.57-3.06-.08-1.74-.1-2.26-.1-6.66s.02-4.92.1-6.66c.07-1.6.34-2.48.57-3.06.3-.77.65-1.32 1.23-1.9.58-.58 1.13-.93 1.9-1.23.58-.23 1.45-.5 3.06-.57 1.74-.08 2.26-.1 6.66-.1z" fill="#FFF" mask="url(#b)"/></g><path d="M16.5 22c-3.04 0-5.5-2.46-5.5-5.5 0-3.03 2.46-5.5 5.5-5.5 3.03 0 5.5 2.47 5.5 5.5 0 3.04-2.47 5.5-5.5 5.5zm0-13.97C11.8 8.03 8 11.83 8 16.5c0 4.68 3.8 8.48 8.47 8.48 4.67 0 8.47-3.8 8.47-8.47 0-4.67-3.8-8.47-8.48-8.47zM27.28 7.7c0 1.1-.9 1.98-1.98 1.98-1.1 0-1.98-.9-1.98-1.98 0-1.1.9-1.98 1.98-1.98 1.1 0 1.98.9 1.98 1.98" fill="#FFF"/></g></svg>